# Blender 4.4.3
# www.blender.org
mtllib 다트.mtl
o Cylinder
v 0.000000 0.056238 -2.439729
v 0.000000 0.091505 1.415117
v 0.028119 0.048703 -2.439729
v 0.040646 0.071361 1.415118
v 0.048703 0.028119 -2.439729
v 0.075292 0.036715 1.415118
v 0.056237 0.000000 -2.439729
v 0.091505 -0.000000 1.415117
v 0.054531 0.031483 -0.948490
v 0.090817 0.052433 -0.001628
v 0.031483 0.054531 -0.948490
v 0.052433 0.090817 -0.001628
v 0.000000 0.104867 -0.001628
v 0.000000 0.062966 -0.948490
v 0.062966 0.000000 -0.948490
v 0.104867 -0.000000 -0.001628
v 0.000000 -0.000000 2.370311
v 0.000000 0.000000 -2.439729
v 0.000000 0.183678 0.691262
v 0.183678 -0.000000 0.691262
v 0.159070 0.091839 0.691262
v 0.091839 0.159070 0.691262
v 0.091839 0.159070 1.415118
v 0.000000 0.183678 1.415118
v 0.159070 0.091839 1.415118
v 0.183678 -0.000000 1.415118
v 0.000000 0.091501 2.005342
v 0.091501 -0.000000 2.005342
v 0.040641 0.071358 2.005342
v 0.075288 0.036711 2.005342
v 0.215665 0.192618 -1.173877
v 0.153760 -0.000000 0.691262
v 0.133160 0.076880 0.691262
v 0.076880 0.133160 0.691262
v 0.000000 0.153760 0.691262
v 0.209838 0.189254 -2.665116
v 0.189254 0.209838 -2.665116
v 0.192618 0.215665 -1.173877
v -0.028119 0.048703 -2.439729
v -0.040646 0.071361 1.415118
v -0.048703 0.028119 -2.439729
v -0.075292 0.036715 1.415118
v -0.056237 0.000000 -2.439729
v -0.091505 -0.000000 1.415117
v -0.054531 0.031483 -0.948490
v -0.090817 0.052433 -0.001628
v -0.031483 0.054531 -0.948490
v -0.052433 0.090817 -0.001628
v -0.062966 0.000000 -0.948490
v -0.104867 -0.000000 -0.001628
v -0.183678 -0.000000 0.691262
v -0.159070 0.091839 0.691262
v -0.091839 0.159070 0.691262
v -0.091839 0.159070 1.415118
v -0.159070 0.091839 1.415118
v -0.183678 -0.000000 1.415118
v -0.091501 -0.000000 2.005342
v -0.040641 0.071358 2.005342
v -0.075288 0.036711 2.005342
v -0.215665 0.192618 -1.173877
v -0.153760 -0.000000 0.691262
v -0.133160 0.076880 0.691262
v -0.076880 0.133160 0.691262
v -0.209838 0.189254 -2.665116
v -0.189254 0.209838 -2.665116
v -0.192618 0.215665 -1.173877
v 0.000000 -0.056237 -2.439729
v 0.000000 -0.091505 1.415117
v 0.028119 -0.048703 -2.439729
v 0.040646 -0.071362 1.415118
v 0.048703 -0.028119 -2.439729
v 0.075292 -0.036715 1.415118
v 0.054531 -0.031483 -0.948490
v 0.090817 -0.052433 -0.001628
v 0.031483 -0.054530 -0.948490
v 0.052433 -0.090817 -0.001628
v 0.000000 -0.104867 -0.001628
v 0.000000 -0.062966 -0.948490
v 0.000000 -0.183678 0.691262
v 0.159070 -0.091839 0.691262
v 0.091839 -0.159070 0.691262
v 0.091839 -0.159070 1.415118
v 0.000000 -0.183679 1.415118
v 0.159070 -0.091839 1.415118
v 0.000000 -0.091501 2.005342
v 0.040641 -0.071358 2.005342
v 0.075288 -0.036711 2.005342
v 0.215665 -0.192618 -1.173877
v 0.133160 -0.076880 0.691262
v 0.076880 -0.133160 0.691262
v 0.000000 -0.153760 0.691262
v 0.209838 -0.189253 -2.665116
v 0.189254 -0.209838 -2.665116
v 0.192618 -0.215665 -1.173877
v -0.028119 -0.048703 -2.439729
v -0.040646 -0.071362 1.415118
v -0.048703 -0.028119 -2.439729
v -0.075292 -0.036715 1.415118
v -0.054531 -0.031483 -0.948490
v -0.090817 -0.052433 -0.001628
v -0.031483 -0.054530 -0.948490
v -0.052433 -0.090817 -0.001628
v -0.159070 -0.091839 0.691262
v -0.091839 -0.159070 0.691262
v -0.091839 -0.159070 1.415118
v -0.159070 -0.091839 1.415118
v -0.040641 -0.071358 2.005342
v -0.075288 -0.036711 2.005342
v -0.215665 -0.192618 -1.173877
v -0.133160 -0.076880 0.691262
v -0.076880 -0.133160 0.691262
v -0.209838 -0.189253 -2.665116
v -0.189254 -0.209838 -2.665116
v -0.192618 -0.215665 -1.173877
vn 0.2588 0.9659 -0.0000
vn 0.5000 0.8660 -0.0000
vn 0.8660 0.5000 -0.0000
vn 0.9659 0.2588 -0.0000
vn 0.4972 0.4972 0.7110
vn 0.4204 0.9068 -0.0308
vn 0.4992 0.8646 -0.0577
vn 0.8646 0.4992 -0.0577
vn 0.9068 0.4204 -0.0308
vn 0.9659 0.2588 -0.0044
vn 0.9997 -0.0000 -0.0243
vn 1.0000 -0.0000 -0.0045
vn -0.0000 0.9997 -0.0243
vn -0.0000 0.9983 -0.0577
vn 0.8250 0.5652 -0.0000
vn 0.5833 0.8123 -0.0000
vn 0.9983 -0.0000 -0.0577
vn -0.0000 -0.0000 -1.0000
vn -0.2452 -0.2452 -0.9380
vn -0.0000 1.0000 -0.0045
vn 0.2588 0.9659 -0.0044
vn -0.0000 -0.0000 1.0000
vn 0.8118 0.5401 0.2218
vn 0.5623 0.7975 0.2185
vn 0.9148 0.4040 -0.0000
vn 0.4441 0.8960 -0.0000
vn 0.9700 -0.0000 0.2432
vn -0.0000 0.9700 0.2432
vn -0.4972 -0.4972 -0.7110
vn 0.7071 0.7071 -0.0044
vn 0.7063 -0.7079 -0.0012
vn -0.7079 0.7063 -0.0012
vn -0.0000 0.9975 -0.0704
vn 0.4988 0.8639 -0.0704
vn 0.8639 0.4988 -0.0704
vn 0.9975 -0.0000 -0.0704
vn -0.2588 0.9659 -0.0000
vn -0.5000 0.8660 -0.0000
vn -0.8660 0.5000 -0.0000
vn -0.9659 0.2588 -0.0000
vn -0.4972 0.4972 0.7110
vn -0.4204 0.9068 -0.0308
vn -0.9068 0.4204 -0.0308
vn -0.8646 0.4992 -0.0577
vn -0.4992 0.8646 -0.0577
vn -0.9659 0.2588 -0.0044
vn -1.0000 -0.0000 -0.0045
vn -0.9997 -0.0000 -0.0243
vn -0.8250 0.5652 -0.0000
vn -0.5833 0.8123 -0.0000
vn -0.9983 -0.0000 -0.0577
vn 0.2452 -0.2452 -0.9380
vn -0.2588 0.9659 -0.0044
vn -0.8118 0.5401 0.2218
vn -0.5623 0.7975 0.2185
vn -0.9148 0.4040 -0.0000
vn -0.4441 0.8960 -0.0000
vn -0.9700 -0.0000 0.2432
vn 0.4972 -0.4972 -0.7110
vn -0.7071 0.7071 -0.0044
vn -0.7063 -0.7079 -0.0012
vn 0.7079 0.7063 -0.0012
vn -0.4988 0.8639 -0.0704
vn -0.8639 0.4988 -0.0704
vn -0.9975 -0.0000 -0.0704
vn 0.2588 -0.9659 -0.0000
vn 0.5000 -0.8660 -0.0000
vn 0.8660 -0.5000 -0.0000
vn 0.9659 -0.2588 -0.0000
vn 0.4972 -0.4972 0.7110
vn 0.4204 -0.9068 -0.0308
vn 0.9068 -0.4204 -0.0308
vn 0.8646 -0.4992 -0.0577
vn 0.4992 -0.8646 -0.0577
vn 0.9659 -0.2588 -0.0044
vn -0.0000 -0.9997 -0.0243
vn -0.0000 -0.9983 -0.0577
vn 0.8250 -0.5652 -0.0000
vn 0.5833 -0.8123 -0.0000
vn -0.2452 0.2452 -0.9380
vn -0.0000 -1.0000 -0.0045
vn 0.2588 -0.9659 -0.0044
vn 0.8118 -0.5401 0.2218
vn 0.5623 -0.7975 0.2185
vn 0.9148 -0.4040 -0.0000
vn 0.4441 -0.8960 -0.0000
vn -0.0000 -0.9700 0.2432
vn -0.4972 0.4972 -0.7110
vn 0.7071 -0.7071 -0.0044
vn 0.7063 0.7079 -0.0012
vn -0.7079 -0.7063 -0.0012
vn 0.4988 -0.8639 -0.0704
vn -0.0000 -0.9975 -0.0704
vn 0.8639 -0.4988 -0.0704
vn -0.2588 -0.9659 -0.0000
vn -0.5000 -0.8660 -0.0000
vn -0.8660 -0.5000 -0.0000
vn -0.9659 -0.2588 -0.0000
vn -0.4972 -0.4972 0.7110
vn -0.4204 -0.9068 -0.0308
vn -0.4992 -0.8646 -0.0577
vn -0.8646 -0.4992 -0.0577
vn -0.9068 -0.4204 -0.0308
vn -0.9659 -0.2588 -0.0044
vn -0.8250 -0.5652 -0.0000
vn -0.5833 -0.8123 -0.0000
vn 0.2452 0.2452 -0.9380
vn -0.2588 -0.9659 -0.0044
vn -0.8118 -0.5401 0.2218
vn -0.5623 -0.7975 0.2185
vn -0.9148 -0.4040 -0.0000
vn -0.4441 -0.8960 -0.0000
vn 0.4972 0.4972 -0.7110
vn -0.7071 -0.7071 -0.0044
vn -0.7063 0.7079 -0.0012
vn 0.7079 -0.7063 -0.0012
vn -0.4988 -0.8639 -0.0704
vn -0.8639 -0.4988 -0.0704
vt 0.927946 0.999833
vt 0.818158 0.999833
vt 0.818158 0.860656
vt 0.927946 0.860656
vt 0.818158 0.721480
vt 0.927946 0.721480
vt 0.818158 0.582304
vt 0.927946 0.582304
vt 0.616932 0.000168
vt 0.651482 0.033071
vt 0.420236 0.275891
vt 0.385686 0.242988
vt 0.932404 0.302394
vt 0.901796 0.455526
vt 0.825865 0.432111
vt 0.886812 0.288335
vt 0.993658 0.088743
vt 0.845005 0.265346
vt 0.956320 0.068210
vt 0.979897 0.306941
vt 0.980894 0.463098
vt 0.058917 0.681220
vt 0.130640 0.681220
vt 0.130640 0.770740
vt 0.058918 0.770740
vt 0.756239 0.393824
vt 0.985304 0.000167
vt 0.998935 0.081351
vt 0.956517 0.077290
vt 0.921812 0.052564
vt 0.904120 0.013798
vt 0.970249 0.710145
vt 0.970249 0.593639
vt 0.970249 0.849322
vt 0.970249 0.732815
vt 0.970249 0.988498
vt 0.970249 0.871991
vt 0.687832 0.964912
vt 0.674750 0.899811
vt 0.674386 0.822861
vt 0.674386 0.751139
vt 0.678819 0.675279
vt 0.687832 0.617225
vt 0.098847 0.899204
vt 0.000167 0.681222
vt 0.000173 0.770742
vt 0.197042 0.681222
vt 0.197037 0.770741
vt 0.054286 0.905186
vt 0.137553 0.902899
vt 0.031025 0.680885
vt 0.000167 0.651498
vt 0.231413 0.408678
vt 0.262271 0.438065
vt 0.674052 0.495012
vt 0.516087 0.657186
vt 0.000167 0.165858
vt 0.154440 0.000167
vt 0.981254 0.456058
vt 0.998935 0.581969
vt 0.882431 0.581189
vt 0.771097 0.546858
vt 0.674386 0.481892
vt 0.759906 0.387803
s 1
usemtl metal
f 19/1/1 24/2/1 23/3/2 22/4/2
f 22/4/2 23/3/2 25/5/3 21/6/3
f 21/6/3 25/5/3 26/7/4 20/8/4
f 6/22/15 4/23/16 29/24/16 30/25/15
f 33/32/18 21/6/18 20/8/18 32/33/18
f 34/34/18 22/4/18 21/6/18 33/35/18
f 35/36/18 19/1/18 22/4/18 34/37/18
f 2/38/22 4/39/22 23/3/22 24/2/22
f 4/40/22 6/41/22 25/5/22 23/3/22
f 6/42/22 8/43/22 26/7/22 25/5/22
f 30/25/23 29/24/24 17/44/22
f 8/45/25 6/22/15 30/25/15 28/46/25
f 4/23/16 2/47/26 27/48/26 29/24/16
f 28/46/27 30/25/23 17/49/22
f 29/24/24 27/48/28 17/50/22
f 19/1/37 53/4/38 54/3/38 24/2/37
f 53/4/38 52/6/39 55/5/39 54/3/38
f 52/6/39 51/8/40 56/7/40 55/5/39
f 42/22/49 59/25/49 58/24/50 40/23/50
f 62/32/18 61/33/18 51/8/18 52/6/18
f 63/34/18 62/35/18 52/6/18 53/4/18
f 35/36/18 63/37/18 53/4/18 19/1/18
f 2/38/22 24/2/22 54/3/22 40/39/22
f 40/40/22 54/3/22 55/5/22 42/41/22
f 42/42/22 55/5/22 56/7/22 44/43/22
f 59/25/54 17/44/22 58/24/55
f 44/45/56 57/46/56 59/25/49 42/22/49
f 40/23/50 58/24/50 27/48/57 2/47/57
f 57/46/58 17/49/22 59/25/54
f 58/24/55 17/50/22 27/48/28
f 79/1/66 81/4/67 82/3/67 83/2/66
f 81/4/67 80/6/68 84/5/68 82/3/67
f 80/6/68 20/8/69 26/7/69 84/5/68
f 72/22/78 87/25/78 86/24/79 70/23/79
f 89/32/18 32/33/18 20/8/18 80/6/18
f 90/34/18 89/35/18 80/6/18 81/4/18
f 91/36/18 90/37/18 81/4/18 79/1/18
f 68/38/22 83/2/22 82/3/22 70/39/22
f 70/40/22 82/3/22 84/5/22 72/41/22
f 72/42/22 84/5/22 26/7/22 8/43/22
f 87/25/83 17/44/22 86/24/84
f 8/45/85 28/46/85 87/25/78 72/22/78
f 70/23/79 86/24/79 85/48/86 68/47/86
f 28/46/27 17/49/22 87/25/83
f 86/24/84 17/50/22 85/48/87
f 79/1/95 83/2/95 105/3/96 104/4/96
f 104/4/96 105/3/96 106/5/97 103/6/97
f 103/6/97 106/5/97 56/7/98 51/8/98
f 98/22/105 96/23/106 107/24/106 108/25/105
f 110/32/18 103/6/18 51/8/18 61/33/18
f 111/34/18 104/4/18 103/6/18 110/35/18
f 91/36/18 79/1/18 104/4/18 111/37/18
f 68/38/22 96/39/22 105/3/22 83/2/22
f 96/40/22 98/41/22 106/5/22 105/3/22
f 98/42/22 44/43/22 56/7/22 106/5/22
f 108/25/109 107/24/110 17/44/22
f 44/45/111 98/22/105 108/25/105 57/46/111
f 96/23/106 68/47/112 85/48/112 107/24/106
f 57/46/58 108/25/109 17/49/22
f 107/24/110 85/48/87 17/50/22
usemtl plastic
f 11/9/5 9/10/5 31/11/5 38/12/5
f 11/13/6 12/14/7 10/15/8 9/16/9
f 5/17/10 9/16/9 15/18/11 7/19/12
f 14/20/13 13/21/14 12/14/7 11/13/6
f 9/16/9 10/15/8 16/26/17 15/18/11
f 18/27/18 1/28/18 3/29/19 5/30/19 7/31/18
f 1/28/20 14/20/13 11/13/6 3/29/21
f 5/51/19 3/52/19 37/53/29 36/54/29
f 37/53/30 38/12/30 31/11/30 36/54/30
f 9/55/31 5/56/31 36/54/31 31/11/31
f 3/57/32 11/58/32 38/12/32 37/53/32
f 13/59/14 35/60/33 34/61/34 12/14/7
f 12/14/7 34/61/34 33/62/35 10/15/8
f 10/15/8 33/62/35 32/63/36 16/64/17
f 47/9/41 66/12/41 60/11/41 45/10/41
f 47/13/42 45/16/43 46/15/44 48/14/45
f 41/17/46 43/19/47 49/18/48 45/16/43
f 14/20/13 47/13/42 48/14/45 13/21/14
f 45/16/43 49/18/48 50/26/51 46/15/44
f 18/27/18 43/31/18 41/30/52 39/29/52 1/28/18
f 1/28/20 39/29/53 47/13/42 14/20/13
f 41/51/52 64/54/59 65/53/59 39/52/52
f 65/53/60 64/54/60 60/11/60 66/12/60
f 45/55/61 60/11/61 64/54/61 41/56/61
f 39/57/62 65/53/62 66/12/62 47/58/62
f 13/59/14 48/14/45 63/61/63 35/60/33
f 48/14/45 46/15/44 62/62/64 63/61/63
f 46/15/44 50/64/51 61/63/65 62/62/64
f 75/9/70 94/12/70 88/11/70 73/10/70
f 75/13/71 73/16/72 74/15/73 76/14/74
f 71/17/75 7/19/12 15/18/11 73/16/72
f 78/20/76 75/13/71 76/14/74 77/21/77
f 73/16/72 15/18/11 16/26/17 74/15/73
f 18/27/18 7/31/18 71/30/80 69/29/80 67/28/18
f 67/28/81 69/29/82 75/13/71 78/20/76
f 71/51/80 92/54/88 93/53/88 69/52/80
f 93/53/89 92/54/89 88/11/89 94/12/89
f 73/55/90 88/11/90 92/54/90 71/56/90
f 69/57/91 93/53/91 94/12/91 75/58/91
f 77/59/77 76/14/74 90/61/92 91/60/93
f 76/14/74 74/15/73 89/62/94 90/61/92
f 74/15/73 16/64/17 32/63/36 89/62/94
f 101/9/99 99/10/99 109/11/99 114/12/99
f 101/13/100 102/14/101 100/15/102 99/16/103
f 97/17/104 99/16/103 49/18/48 43/19/47
f 78/20/76 77/21/77 102/14/101 101/13/100
f 99/16/103 100/15/102 50/26/51 49/18/48
f 18/27/18 67/28/18 95/29/107 97/30/107 43/31/18
f 67/28/81 78/20/76 101/13/100 95/29/108
f 97/51/107 95/52/107 113/53/113 112/54/113
f 113/53/114 114/12/114 109/11/114 112/54/114
f 99/55/115 97/56/115 112/54/115 109/11/115
f 95/57/116 101/58/116 114/12/116 113/53/116
f 77/59/77 91/60/93 111/61/117 102/14/101
f 102/14/101 111/61/117 110/62/118 100/15/102
f 100/15/102 110/62/118 61/63/65 50/64/51
